<mxfile host="app.diagrams.net" modified="2024-03-26T14:24:38.109Z" agent="Mozilla/5.0 (Windows NT 10.0; Win64; x64) AppleWebKit/537.36 (KHTML, like Gecko) Chrome/121.0.0.0 Safari/537.36 OPR/107.0.0.0" version="24.0.7" etag="4_fcp1v8iK3-gmJZPWJs" type="github">
  <diagram name="Page-1" id="Ep5gpStP1PGsjcK6a7m-">
    <mxGraphModel>
      <root>
        <mxCell id="0" />
        <mxCell id="1" parent="0" />
      </root>
    </mxGraphModel>
  </diagram>
</mxfile>
